# xmcd
#
# Track frame offsets:
#	150
#	19792
#	37957
#	53255
#	68230
#	90155
#	106600
#	124867
#	142105
#	160582
#	176462
#	192375
#	210262
#	226392
#	244757
#	260550
#	280232
#
# Disc length: 3929
#
# Revision: 1
# Processed by: cddbd v1.5.1PL0 Copyright (c) Steve Scherf et al.
# Submitted via: dBpowerAMP V4.0
# Normalized: r0:DSETVAR1,TDELIM( - ),TSWAP
#
DISCID=d80f5711
DTITLE=Various Artist - Country Time
DYEAR=1998
DGENRE=Country
TTITLE0=The Mavericks - Dance The Night Away
TTITLE1=Trisha Yearwood - How Do I Live
TTITLE2=Vince Gill - You And You Alone
TTITLE3=Michael Peterson - Too Good To Be True
TTITLE4=Anita Cochran/Steve Wariner - What If I Said
TTITLE5=Collin Raye - I Can Still Feel You
TTITLE6=Olivia Newton John - I Honestly Love You
TTITLE7=Thrisha Yearwood - There Goes My Baby
TTITLE8=Patty Loveless/George Jones - You Don't Seem To Miss Me
TTITLE9=George Strait - True
TTITLE10=The Lynns - Woman To Woman
TTITLE11=Clint Black - Something That We Do
TTITLE12=Martina McBride - A Broken Wing
TTITLE13=Diamond Rio - How Your Love Makes Me Feel
TTITLE14=Reba McEntire - What If
TTITLE15=Alan Jackson - Between The Devil And Me
TTITLE16=Ruud Hermans/Ilse DeLange - The Angels Rejoiced Last Night
EXTD=
EXTT0=
EXTT1=
EXTT2=
EXTT3=
EXTT4=
EXTT5=
EXTT6=
EXTT7=
EXTT8=
EXTT9=
EXTT10=
EXTT11=
EXTT12=
EXTT13=
EXTT14=
EXTT15=
EXTT16=
PLAYORDER=
